<?xml version="1.0" encoding="utf-8"?>
<!-- Generator: Adobe Illustrator 18.1.1, SVG Export Plug-In . SVG Version: 6.00 Build 0)  -->
<svg version="1.1" id="Layer_1" xmlns="http://www.w3.org/2000/svg" xmlns:xlink="http://www.w3.org/1999/xlink" x="0px" y="0px"
	 viewBox="0 0 100 100" enable-background="new 0 0 100 100" xml:space="preserve">
<g>
	<g id="b">
		<path fill="#FFFFFF" d="M54.9,51.6c-1.6,0-3.6,0.6-5.9,1.7S45.4,55,45,55c-0.2,0-0.9-0.5-2-1.5c-1.3-1.1-1.9-1.7-2-1.9
			c-0.7-0.6-1.8-0.9-3.3-0.9c-1.4,0-2.6,0.3-3.6,0.8c-3.4,1.9-5.4,2.9-5.9,3.3c-1.9,1.2-2.8,2.3-2.8,3.3c0,0.4,0.1,0.8,0.4,1.3
			c0.4,0.7,1.1,1.1,2.1,1.1c0.4,0,1.9-0.8,4.5-2.4c2.6-1.6,4.2-2.5,4.8-2.5l1.2,0.1c0.2,0.1,1.1,0.9,2.7,2.5
			c1.1,1.1,2.4,1.6,3.8,1.6c1,0,2.8-0.5,5.3-1.6c2.5-1.2,4-1.9,4.5-1.9s1.3,0.7,2.5,2.3C58.4,60.3,60,61,62,61
			c1.4,0,2.8-0.4,4.1-1.2c0.7-0.5,1.9-1.2,3.4-2.3c1.2-0.6,2.4-1.3,3.8-2.1c0.8-0.5,1.2-1.2,1.2-2.1c0-0.4-0.2-0.9-0.4-1.3
			c-0.5-0.7-1.2-1-2.2-1c-0.9,0-2.7,0.9-5.3,2.7c-2.7,1.7-4.1,2.7-4.3,2.7c-0.1,0-0.8-0.7-2.2-2.3C58.5,52.5,56.8,51.6,54.9,51.6
			 M44.9,48.1c1,0,2.8-0.5,5.3-1.6c2.5-1.1,4.1-1.7,4.6-1.7s1.3,0.7,2.5,2.3c1.2,1.5,2.8,2.3,4.8,2.3c1.4,0,2.8-0.4,4.1-1.2
			c0.7-0.5,1.9-1.2,3.4-2.3c1.2-0.6,2.4-1.3,3.8-2.1c0.8-0.5,1.2-1.2,1.2-2.1c0-0.4-0.2-0.9-0.4-1.3c-0.5-0.7-1.2-1-2.2-1
			c-0.9,0-2.7,0.9-5.3,2.7c-2.7,1.7-4.1,2.7-4.3,2.7c-0.1,0-0.8-0.7-2.2-2.3c-1.4-1.5-3.1-2.3-5-2.3c-1.6,0-3.6,0.6-5.9,1.7
			c-2.3,1.1-3.6,1.6-4,1.6c-0.2,0-0.9-0.5-2-1.5c-1.3-1.1-1.9-1.7-2-1.9c-1-0.8-2.1-1.1-3.6-1.1c-1.4,0-2.6,0.3-3.6,0.8
			c-3.4,1.9-5.4,3-5.9,3.3c-1.9,1.2-2.8,2.3-2.8,3.3c0,0.4,0.1,0.8,0.4,1.3c0.4,0.7,1.1,1.1,2.1,1.1c0.4,0,1.9-0.8,4.5-2.4
			c2.6-1.6,4.2-2.5,4.8-2.5l1.2,0.1c0.2,0.1,1.1,0.9,2.7,2.5C42.2,47.6,43.4,48.1,44.9,48.1z"/>
	</g>
</g>
<g>
	<path id="a" fill="none" stroke="#FFFFFF" stroke-width="4" stroke-linecap="round" stroke-linejoin="round" d="M87.8,50
		c0,10-3.7,18.5-11.1,25.6c-7.3,7-16.2,10.6-26.7,10.6s-19.4-3.5-26.8-10.6c-7.4-7-11-15.5-11-25.6s3.7-18.5,11-25.6
		c7.4-7,16.3-10.6,26.8-10.6s19.4,3.5,26.8,10.6C84.2,31.5,87.8,40,87.8,50z"/>
</g>
<g opacity="0.4">
	<path id="a_1_" fill="#FFFFFF" d="M87.8,50c0,10-3.7,18.5-11.1,25.6c-7.3,7-16.2,10.6-26.7,10.6s-19.4-3.5-26.8-10.6
		c-7.4-7-11-15.5-11-25.6s3.7-18.5,11-25.6c7.4-7,16.3-10.6,26.8-10.6s19.4,3.5,26.8,10.6C84.2,31.5,87.8,40,87.8,50z"/>
</g>
</svg>
