<?xml version="1.0" encoding="utf-8"?>
<!-- Generator: Adobe Illustrator 18.1.1, SVG Export Plug-In . SVG Version: 6.00 Build 0)  -->
<svg version="1.1" id="Layer_1" xmlns="http://www.w3.org/2000/svg" xmlns:xlink="http://www.w3.org/1999/xlink" x="0px" y="0px"
	 viewBox="0 0 100 100" enable-background="new 0 0 100 100" xml:space="preserve">
<g transform="matrix( 1, 0, 0, 1, 0,0) ">
	<g>
		<g id="b">
			<path fill="#FFFFFF" d="M55.2,49.3c-1.6,0-3.6,0.6-5.9,1.7c-2.3,1.1-3.6,1.6-4,1.6c-0.2,0-0.9-0.5-2-1.5c-1.3-1.1-1.9-1.7-2-1.8
				c-0.7-0.6-1.8-0.9-3.3-0.9c-1.4,0-2.6,0.3-3.6,0.8c-3.4,1.8-5.4,2.8-5.9,3.2c-1.9,1.2-2.8,2.2-2.8,3.2c0,0.4,0.1,0.8,0.4,1.3
				c0.4,0.7,1.1,1.1,2.1,1.1c0.4,0,1.9-0.8,4.5-2.3c2.6-1.6,4.2-2.4,4.8-2.4l1.2,0.1c0.2,0.1,1.1,0.9,2.7,2.4
				c1.1,1.1,2.4,1.6,3.8,1.6c1,0,2.8-0.5,5.3-1.6C53,54.6,54.5,54,55,54c0.5,0,1.3,0.7,2.5,2.2c1.2,1.5,2.8,2.2,4.8,2.2
				c1.4,0,2.8-0.4,4.1-1.2c0.7-0.5,1.9-1.2,3.4-2.2c1.2-0.6,2.4-1.3,3.8-2c0.8-0.5,1.2-1.2,1.2-2c0-0.4-0.2-0.9-0.4-1.3
				c-0.5-0.7-1.2-1-2.2-1c-0.9,0-2.7,0.9-5.3,2.6c-2.7,1.7-4.1,2.6-4.3,2.6c-0.1,0-0.8-0.7-2.2-2.2C58.8,50.1,57.1,49.3,55.2,49.3
				 M45.2,45.9c1,0,2.8-0.5,5.3-1.6c2.5-1.1,4.1-1.7,4.6-1.7c0.5,0,1.3,0.7,2.5,2.2c1.2,1.5,2.8,2.2,4.8,2.2c1.4,0,2.8-0.4,4.1-1.2
				c0.7-0.5,1.9-1.2,3.4-2.2c1.2-0.6,2.4-1.3,3.8-2c0.8-0.5,1.2-1.2,1.2-2c0-0.4-0.2-0.9-0.4-1.3c-0.5-0.7-1.2-1-2.2-1
				c-0.9,0-2.7,0.9-5.3,2.6c-2.7,1.7-4.1,2.6-4.3,2.6c-0.1,0-0.8-0.7-2.2-2.2c-1.4-1.5-3.1-2.2-5-2.2c-1.6,0-3.6,0.6-5.9,1.7
				c-2.3,1.1-3.6,1.6-4,1.6c-0.2,0-0.9-0.5-2-1.5c-1.3-1.1-1.9-1.7-2-1.8C40.6,37.3,39.5,37,38,37c-1.4,0-2.6,0.3-3.6,0.8
				C31,39.6,29,40.7,28.5,41c-1.9,1.2-2.8,2.2-2.8,3.2c0,0.4,0.1,0.8,0.4,1.3c0.4,0.7,1.1,1.1,2.1,1.1c0.4,0,1.9-0.8,4.5-2.3
				c2.6-1.6,4.2-2.4,4.8-2.4l1.2,0.1c0.2,0.1,1.1,0.9,2.7,2.4C42.5,45.4,43.7,45.9,45.2,45.9z"/>
		</g>
	</g>
	<g>
		<path id="a" fill="none" stroke="#FFFFFF" stroke-width="4" stroke-linecap="round" stroke-linejoin="round" d="M87.8,50
			c0,9.7-3.7,18-11.1,24.9C69.4,81.7,60.5,85.2,50,85.2c-10.5,0-19.4-3.4-26.8-10.3c-7.4-6.8-11-15.1-11-24.9s3.7-18,11-24.9
			c7.4-6.8,16.3-10.3,26.8-10.3s19.4,3.4,26.8,10.3C84.2,32,87.8,40.3,87.8,50z"/>
	</g>
</g>
</svg>
