<?xml version="1.0" encoding="utf-8"?>
<!-- Generator: Adobe Illustrator 18.1.1, SVG Export Plug-In . SVG Version: 6.00 Build 0)  -->
<svg version="1.1" id="Layer_1" xmlns="http://www.w3.org/2000/svg" xmlns:xlink="http://www.w3.org/1999/xlink" x="0px" y="0px"
	 viewBox="0 0 100 100" enable-background="new 0 0 100 100" xml:space="preserve">
<g transform="matrix( 1, 0, 0, 1, 0,0) ">
	<g>
		<g id="b">
			<path fill="#FFFFFF" d="M51.5,37.4c-0.6,1.2-1.1,3.2-1.5,5.8c-0.5-2.6-1-4.5-1.6-5.7c-1.9-3.8-5.3-5.7-10.2-5.7
				c-2.7,0-5.1,1.1-7.1,3.3c-2.2,2.4-3.4,5.5-3.4,9.3c0,0.1,0.2,1.3,0.6,3.7c0.8,2.4,2.3,4,4.4,4.8c0.8,0.3,1.5,0,2-0.7
				c0.4-0.6,0.5-1.2,0.5-1.7c0-0.6-0.4-1.4-1.2-2.5c-0.8-1.1-1.2-2.3-1.2-3.6c0-1.4,0.4-2.9,1.1-4.3c1-2.1,2.5-3.2,4.4-3.2
				c3.2,0,5.2,1.4,6.2,4.3c0.3,1,0.8,4.8,1.5,11.4c0,0.1,0.1,1.5,0.4,4.1c0.2,1.8,0.2,3.1,0.2,4.1c-0.1,1.4,0.1,2.8,0.5,4.1
				c0,0.1,0,0.7,0.1,1.9c0.4,1.2,1.2,1.8,2.6,1.8c0.3,0,0.6,0,0.8-0.1c1.2-0.1,2-0.7,2.2-1.8c0.1-1.2,0.1-1.9,0.1-1.9
				c0.3-1.4,0.5-2.7,0.4-4.1c0-1,0.1-2.4,0.2-4.1c0.3-2.6,0.5-3.9,0.5-4.1c0.6-6.6,1.1-10.4,1.4-11.4c0.9-2.8,2.8-4.3,5.8-4.3
				c1.8,0,3.2,1.1,4.1,3.2c0.7,1.5,1,2.9,1,4.3c0,1.3-0.4,2.5-1.2,3.6c-0.8,1.1-1.2,1.9-1.2,2.5c0,0.6,0.2,1.2,0.5,1.8
				c0.5,0.8,1.1,1,1.8,0.7c2.1-0.9,3.5-2.5,4.2-4.9c0.3-2.3,0.5-3.5,0.5-3.6c0-3.8-1.1-6.9-3.2-9.3c-1.9-2.2-4.2-3.3-6.7-3.3
				C56.6,31.7,53.3,33.6,51.5,37.4z"/>
		</g>
	</g>
	<g>
		<path id="a" fill="none" stroke="#FFFFFF" stroke-width="4" stroke-linecap="round" stroke-linejoin="round" d="M87.8,50
			c0,10.4-3.7,19.2-11.1,26.5c-7.4,7.3-16.3,11-26.8,11s-19.4-3.7-26.8-11c-7.4-7.3-11-16.1-11-26.5s3.7-19.2,11-26.6
			c7.4-7.3,16.3-10.9,26.8-10.9c10.5,0,19.4,3.6,26.8,10.9C84.2,30.8,87.8,39.6,87.8,50z"/>
	</g>
</g>
</svg>
