<?xml version="1.0" encoding="utf-8"?>
<!-- Generator: Adobe Illustrator 18.1.1, SVG Export Plug-In . SVG Version: 6.00 Build 0)  -->
<svg version="1.1" id="Layer_1" xmlns="http://www.w3.org/2000/svg" xmlns:xlink="http://www.w3.org/1999/xlink" x="0px" y="0px"
	 viewBox="0 0 100 100" enable-background="new 0 0 100 100" xml:space="preserve">
<g>
	<g id="b">
		<path fill="#FFFFFF" d="M32.9,51.3c-0.7,1.4-1,2.7-1,4.1c0.2,2,0.8,3.7,1.9,5.1c0.9,1.3,1.6,2.1,2.2,2.4c0.4,0.8,2.1,1.6,4.9,2.5
			c2.3,0.7,5.1,1,8.3,1l2.6-0.1c3.1,0,6.4-1.1,10-3.5c3.4-2.2,5-4.1,5-5.5c-0.1-1.6-1-2.4-2.6-2.3c-1.2,0.1-2.7,1.1-4.3,3
			c-0.7,0.7-1.8,1.3-3.2,1.9c-1.8,0.8-3.4,1.2-4.9,1.2l-2.9,0.2c-1.3,0-2.6-0.1-3.9-0.2c0.5-0.4,0.9-0.7,1-0.9
			c1.1-1.8,1.6-3.5,1.5-5.2c-0.1-1.9-0.8-3.6-2.1-5c-1.6-1.8-3.8-2.6-6.6-2.4C35.9,47.9,34,49.1,32.9,51.3 M37.2,53.7
			c0.4-0.6,1-0.9,1.7-0.9c1.1-0.1,2,0.2,2.7,0.8c0.5,0.5,0.8,1,0.8,1.5c0.1,0.5,0.1,0.8,0.1,1.1c-0.1,0.5-0.5,0.9-1.2,1.4
			c-0.2,0.2-0.7,0.3-1.4,0.4c-0.7,0.1-1.1,0-1.3-0.1c-1.1-0.9-1.7-1.9-1.8-2.8C36.8,54.7,37,54.2,37.2,53.7 M52,33.6h-2.6
			c-3.1-0.3-6.5,0.6-10.2,2.7c-3.5,2-5.3,3.7-5.3,5.1c0,1.6,0.8,2.4,2.4,2.4c1.2,0,2.7-0.9,4.5-2.7c0.7-0.6,1.8-1.2,3.3-1.7
			c1.9-0.7,3.5-1,5-0.9h2.9c1.3,0.1,2.6,0.2,3.8,0.4c-0.6,0.4-0.9,0.6-1.1,0.8c-1.3,1.7-1.9,3.4-1.9,5c0,1.9,0.6,3.6,1.8,5.2
			c1.5,1.9,3.6,2.9,6.3,2.9s4.7-1,6-3.1c0.8-1.4,1.2-2.7,1.2-4.1c0-2-0.5-3.7-1.4-5.2c-0.8-1.3-1.5-2.1-2-2.5
			c-0.4-0.8-2-1.7-4.8-2.8C58,34.4,55.2,33.9,52,33.6 M59.2,42.9c0.3-0.2,0.7-0.3,1.4-0.3s1.2,0,1.4,0.2c1,1,1.5,2,1.5,2.9
			c0,0.4-0.2,0.8-0.5,1.3c-0.5,0.6-1.1,0.8-1.8,0.8c-1.1,0-2-0.3-2.6-1c-0.5-0.5-0.7-1-0.7-1.5c-0.1-0.5-0.1-0.8,0-1.1
			C58,43.8,58.4,43.4,59.2,42.9z"/>
	</g>
</g>
<g>
	<path id="a" fill="none" stroke="#FFFFFF" stroke-width="4" stroke-linecap="round" stroke-linejoin="round" d="M87.8,49.9
		c0,10.4-3.7,19.3-11.1,26.6C69.3,84,60.4,87.7,50,87.7c-10.5,0-19.4-3.7-26.8-11s-11-16.2-11-26.6s3.7-19.3,11-26.7
		c7.4-7.3,16.3-11,26.8-11s19.4,3.7,26.7,11C84.1,30.6,87.8,39.6,87.8,49.9z"/>
</g>
<g opacity="0.4">
	<path id="a_1_" fill="#FFFFFF" d="M87.8,49.9c0,10.4-3.7,19.3-11.1,26.6C69.3,84,60.4,87.7,50,87.7c-10.5,0-19.4-3.7-26.8-11
		s-11-16.2-11-26.6s3.7-19.3,11-26.7c7.4-7.3,16.3-11,26.8-11s19.4,3.7,26.7,11C84.1,30.6,87.8,39.6,87.8,49.9z"/>
</g>
</svg>
