<?xml version="1.0" encoding="utf-8"?>
<!-- Generator: Adobe Illustrator 18.1.1, SVG Export Plug-In . SVG Version: 6.00 Build 0)  -->
<svg version="1.1" id="Layer_1" xmlns="http://www.w3.org/2000/svg" xmlns:xlink="http://www.w3.org/1999/xlink" x="0px" y="0px"
	 viewBox="0 0 100 100" enable-background="new 0 0 100 100" xml:space="preserve">
<g transform="matrix( 1, 0, 0, 1, 0,0) ">
	<g>
		<g id="b">
			<path fill="#FFFFFF" d="M57.3,36.2c-1.2-2.4-2.5-4.1-3.7-5.2c-2.7-2.2-5.8-2.5-9.5-0.7c-1.7,0.8-3.1,2.4-4.3,4.7
				c-0.7-1.5-1.9-2.7-3.6-3.8c-2.3-1.5-4.8-1.5-7.5,0.2c-2.4,1.5-3.6,2.9-3.6,4.2c0,0.4,0.1,0.8,0.4,1.3c0.4,0.7,1.1,1.1,2.1,1.1
				c0.7,0,1.5-0.5,2.4-1.6c0.9-1.1,1.7-1.6,2.4-1.6c1.3,0,2.4,1,3.2,3.1c0.5,1.3,1.1,3.5,1.8,6.6c0.3,1.6,0.5,4.9,0.4,9.9
				c0,0.6,0.1,1.2,0.4,1.7c0.5,1,1.4,1.5,2.7,1.5c1.4,0,2.1-0.9,2.1-2.7c0-1.6-0.2-5.3-0.5-11.1c0-1.5,0-2.4,0.1-2.6
				c0.2-1.1,0.4-2.3,0.7-3.4c0.7-2.7,2.5-4,5.5-4c1.8,0,3.3,2,4.5,6.1c0.4,1.3,0.8,3.4,1.4,6.3c0.2,1,0.6,3.1,1.2,6.2
				c0.6,2.9,1.5,4.8,2.8,5.6l-3,3.3c-1.8,1.8-4.2,3-7.5,3.5c-2.4,0.4-3.6,1.2-3.6,2.6c0,0.4,0.1,0.8,0.4,1.3
				c0.4,0.7,1.1,1.1,2.1,1.1c3.1,0,6.4-1.1,9.8-3.4c2.7-1.8,5-3.8,6.8-6.2c0.7,0.6,1.3,1.1,1.8,1.3c1.4,0.8,3.1,1.1,5.3,1.1
				c3.6,0,6.2-1.1,7.8-3.3c1-1.4,1.5-3,1.5-4.8c0-1.8-0.6-3.7-1.8-5.6c-1.9-3.1-4.8-4.7-8.7-4.7c-1.6,0-3.2,0.4-4.8,1.3
				c-2,1.1-3.4,2.5-4.3,4.3l-0.7-3.8c-0.4-2.2-0.8-3.8-1-5C58.4,39.2,57.9,37.5,57.3,36.2 M75,53.6c0,1-0.1,1.8-0.4,2.4
				c-0.6,1.2-1.8,1.8-3.8,1.8c-1.3,0-2.3-0.1-2.9-0.4c-0.1,0-0.6-0.4-1.6-1.1c-0.3-0.3-0.5-0.5-0.7-0.8c-0.3-0.6-0.4-1-0.4-1.4
				c0-0.9,0.2-1.8,0.8-2.6c0.7-1.2,1.7-2,3.2-2.4c2.3,0,3.9,0.6,4.9,1.8C74.7,51.6,75,52.6,75,53.6z"/>
		</g>
	</g>
	<g>
		<path id="a" fill="none" stroke="#FFFFFF" stroke-width="4" stroke-linecap="round" stroke-linejoin="round" d="M87.8,50
			c0,9.9-3.7,18.4-11.1,25.4c-7.4,7-16.3,10.5-26.8,10.5s-19.4-3.5-26.8-10.5c-7.4-7-11.1-15.5-11.1-25.4s3.7-18.4,11.1-25.4
			c7.4-7,16.3-10.5,26.8-10.5s19.4,3.5,26.8,10.5C84.1,31.6,87.8,40.1,87.8,50z"/>
	</g>
</g>
</svg>
