<?xml version="1.0" encoding="utf-8"?>
<!-- Generator: Adobe Illustrator 18.1.1, SVG Export Plug-In . SVG Version: 6.00 Build 0)  -->
<svg version="1.1" id="Layer_1" xmlns="http://www.w3.org/2000/svg" xmlns:xlink="http://www.w3.org/1999/xlink" x="0px" y="0px"
	 viewBox="0 0 100 100" enable-background="new 0 0 100 100" xml:space="preserve">
<g>
	<g id="b">
		<path fill="#FFFFFF" d="M54.7,36.7c-1.2-2.4-2.5-4.1-3.7-5.2c-2.7-2.2-5.8-2.5-9.5-0.7c-1.7,0.8-3.1,2.4-4.3,4.7
			c-0.7-1.5-1.9-2.7-3.6-3.8c-2.3-1.5-4.8-1.5-7.5,0.2c-2.4,1.5-3.6,2.9-3.6,4.2c0,0.4,0.1,0.8,0.4,1.3c0.4,0.7,1.1,1.1,2.1,1.1
			c0.7,0,1.5-0.5,2.4-1.6c0.9-1.1,1.7-1.6,2.4-1.6c1.3,0,2.4,1,3.2,3.1c0.5,1.3,1.1,3.5,1.8,6.6c0.3,1.6,0.5,4.9,0.4,9.9
			c0,0.6,0.1,1.2,0.4,1.7c0.5,1,1.4,1.5,2.7,1.5c1.4,0,2.1-0.9,2.1-2.7c0-1.6-0.2-5.3-0.5-11.1c0-1.5,0-2.4,0.1-2.6
			c0.2-1.1,0.4-2.3,0.7-3.4c0.7-2.7,2.5-4,5.5-4c1.8,0,3.3,2,4.5,6.1c0.4,1.3,0.8,3.4,1.4,6.3c0.2,1,0.6,3.1,1.2,6.2
			c0.6,2.9,1.5,4.8,2.8,5.6l-3,3.3c-1.8,1.8-4.2,3-7.5,3.5c-2.4,0.4-3.6,1.2-3.6,2.6c0,0.4,0.1,0.8,0.4,1.3c0.4,0.7,1.1,1.1,2.1,1.1
			c3.1,0,6.4-1.1,9.8-3.4c2.7-1.8,5-3.8,6.8-6.2c0.7,0.6,1.3,1.1,1.8,1.3c1.4,0.8,3.1,1.1,5.3,1.1c3.6,0,6.2-1.1,7.8-3.3
			c1-1.4,1.5-3,1.5-4.8s-0.6-3.7-1.8-5.6c-1.9-3.1-4.8-4.7-8.7-4.7c-1.6,0-3.2,0.4-4.8,1.3c-2,1.1-3.4,2.5-4.3,4.3l-0.7-3.8
			c-0.4-2.2-0.8-3.8-1-5C55.8,39.7,55.3,38,54.7,36.7 M72.4,54.1c0,1-0.1,1.8-0.4,2.4c-0.6,1.2-1.8,1.8-3.8,1.8
			c-1.3,0-2.3-0.1-2.9-0.4c-0.1,0-0.6-0.4-1.6-1.1c-0.3-0.3-0.5-0.5-0.7-0.8c-0.3-0.6-0.4-1-0.4-1.4c0-0.9,0.2-1.8,0.8-2.6
			c0.7-1.2,1.7-2,3.2-2.4c2.3,0,3.9,0.6,4.9,1.8C72.1,52.1,72.4,53.1,72.4,54.1z"/>
	</g>
</g>
<g>
	<path id="a" fill="none" stroke="#FFFFFF" stroke-width="4" stroke-linecap="round" stroke-linejoin="round" d="M87.9,50
		c0,9.9-3.7,18.4-11.1,25.4S60.5,85.9,50,85.9s-19.4-3.5-26.8-10.5S12.1,59.9,12.1,50s3.7-18.4,11.1-25.4S39.5,14.1,50,14.1
		s19.4,3.5,26.8,10.5C84.2,31.6,87.9,40.1,87.9,50z"/>
</g>
<g opacity="0.4">
	<path id="a_1_" fill="#FFFFFF" d="M87.9,50c0,9.9-3.7,18.4-11.1,25.4S60.5,85.9,50,85.9s-19.4-3.5-26.8-10.5S12.1,59.9,12.1,50
		s3.7-18.4,11.1-25.4S39.5,14.1,50,14.1s19.4,3.5,26.8,10.5C84.2,31.6,87.9,40.1,87.9,50z"/>
</g>
</svg>
