<?xml version="1.0" encoding="utf-8"?>
<!-- Generator: Adobe Illustrator 18.1.1, SVG Export Plug-In . SVG Version: 6.00 Build 0)  -->
<svg version="1.1" id="Layer_1" xmlns="http://www.w3.org/2000/svg" xmlns:xlink="http://www.w3.org/1999/xlink" x="0px" y="0px"
	 viewBox="0 0 100 100" enable-background="new 0 0 100 100" xml:space="preserve">
<g transform="matrix( 1, 0, 0, 1, 0,0) ">
	<g>
		<g id="b">
			<path fill="#FFFFFF" d="M41.2,45.7l0,0.4C40.7,46,40.3,46,40,46c-2.1,0.4-3.7,1.3-4.7,2.4c-1.3,1.4-2,3-2,4.9
				c-0.1,2.3,0.8,4.3,3,6c2,1.7,4.2,2.2,6.5,1.5c1.5-0.4,2.7-1.2,3.6-2.1c1.4-1.6,2.2-3.2,2.3-4.7c0.1-0.7,0.1-1.5-0.1-2.5
				c-0.1-0.7-0.3-1.3-0.6-1.9c-0.1-0.2-0.5-0.9-1.1-2c-0.4-0.7-0.6-1.1-0.7-1.2v-1.9l0.5-3.3c0.8-4.6,3.3-6.9,7.5-6.9
				c1.9,0,3.4,0.9,4.4,2.6c0.6,1.1,0.9,2.1,0.9,3.1c0,1.6-0.5,3-1.3,4.3c-0.4,0.5-1.4,1.7-3,3.5c-2.9,3.2-4.4,6.7-4.4,10.7
				c0,2.3,0.7,4.3,2.1,6.2c1.8,2.3,4.2,3.5,7.5,3.5c3,0,5.1-1.2,6.4-3.7c0.7-1.4,1-2.9,1-4.4c0-0.7-0.1-1.3-0.4-1.9
				c-0.5-1.1-1.5-1.6-2.8-1.6c-1.6,0-2.4,0.9-2.4,2.6c0,0.3,0.1,0.9,0.3,1.9l-0.2,1.1c-0.4,0.8-1,1.1-2,1.1c-1.8,0-3.1-0.8-3.8-2.3
				c-0.4-0.9-0.7-1.7-0.7-2.5c0-2.7,1.5-5.7,4.4-9c2.9-3.2,4.3-6.4,4.3-9.5c0-2.4-0.8-4.6-2.3-6.6c-1.9-2.5-4.5-3.8-7.8-3.8
				c-5.7,0-9.6,2.5-11.7,7.4C41.7,39.4,41.2,42.3,41.2,45.7 M39.5,55.7c-0.9-0.7-1.3-1.5-1.4-2.4c0-0.6,0.2-1.1,0.5-1.5
				c0.3-0.4,0.5-0.7,0.8-0.8c0.4-0.3,1-0.3,1.8-0.1c0.3,0,0.7,0.3,1.3,0.7c0.5,0.4,0.8,0.7,0.9,1c0.1,1.4-0.1,2.4-0.8,3.1
				c-0.2,0.3-0.7,0.5-1.2,0.6C40.6,56.3,40,56.2,39.5,55.7z"/>
		</g>
	</g>
	<g>
		<path id="a" fill="none" stroke="#FFFFFF" stroke-width="4" stroke-linecap="round" stroke-linejoin="round" d="M87.8,50
			c0,10-3.7,18.5-11.1,25.5C69.4,82.6,60.5,86.1,50,86.1s-19.4-3.5-26.8-10.6c-7.4-7-11-15.5-11-25.5s3.7-18.5,11-25.6
			c7.4-7,16.3-10.6,26.8-10.6s19.4,3.5,26.8,10.6C84.2,31.5,87.8,40,87.8,50z"/>
	</g>
</g>
</svg>
