<?xml version="1.0" encoding="utf-8"?>
<!-- Generator: Adobe Illustrator 18.1.1, SVG Export Plug-In . SVG Version: 6.00 Build 0)  -->
<svg version="1.1" id="Layer_1" xmlns="http://www.w3.org/2000/svg" xmlns:xlink="http://www.w3.org/1999/xlink" x="0px" y="0px"
	 viewBox="0 0 100 100" enable-background="new 0 0 100 100" xml:space="preserve">
<g>
	<g id="b">
		<path fill="#FFFFFF" d="M27.7,60.2c0,0.5,0.1,0.9,0.4,1.3c0.4,0.7,1.1,1,2.1,1h40.2c0.9,0,1.5-0.3,2-0.9c0.3-0.5,0.5-0.9,0.5-1.4
			s-0.2-0.9-0.5-1.4c-0.5-0.6-1.1-1-2-1H30.2l0,0c-0.9,0-1.6,0.3-2,0.9C27.9,59.2,27.7,59.7,27.7,60.2 M42.7,47.6c0-1,0.5-2,1.3-3
			c1.2-1.5,2.9-2.2,5-2.2c3,0,5.2,0.5,6.6,1.5c1.1,0.7,1.6,1.6,1.6,2.6c0,0,0,0.4,0,1c0,0.8,0,1.7,0,2.5c0.2,1.7,0.8,2.7,1.9,2.9
			c0.4,0.4,1,0.6,1.6,0.6l9.6-0.1c0.9,0,1.5-0.3,2-0.9c0.3-0.5,0.5-0.9,0.5-1.4s-0.2-0.9-0.5-1.4c-0.5-0.6-1.1-1-2-1h-7.7
			c-0.1,0-0.2,0-0.2,0c0-0.2,0-0.6-0.2-1.1c-0.1-0.6-0.1-1-0.1-1.4c0-2.3-1-4.2-3.1-5.7c-0.9-1.1-2.8-2-5.7-2.5
			c-3.2-0.7-5.9-0.5-8.2,0.4c-3.1,1.2-5.3,3-6.5,5.2c-0.8,1.4-1.2,3.2-1.2,5.3h-7.8c-0.9,0-1.6,0.3-2,0.9c-0.3,0.4-0.5,0.9-0.5,1.5
			c0,1.3,0.8,2.1,2.5,2.4H40c0.8,0,1.4-0.3,1.9-0.9c0.3-0.5,0.5-0.9,0.5-1.4V51c0-0.2,0-0.3,0-0.4C42.4,49.6,42.5,48.7,42.7,47.6z"
			/>
	</g>
</g>
<g>
	<path id="a" fill="none" stroke="#FFFFFF" stroke-width="4" stroke-linecap="round" stroke-linejoin="round" d="M87.8,50
		c0,9.9-3.7,18.3-11.1,25.2c-7.4,7-16.3,10.5-26.8,10.5s-19.4-3.5-26.8-10.5c-7.4-6.9-11-15.4-11-25.2s3.7-18.3,11-25.3
		c7.4-6.9,16.3-10.4,26.8-10.4s19.4,3.5,26.8,10.4C84.2,31.7,87.8,40.1,87.8,50z"/>
</g>
<g opacity="0.4">
	<path id="a_1_" fill="#FFFFFF" d="M87.8,50c0,9.9-3.7,18.3-11.1,25.2c-7.4,7-16.3,10.5-26.8,10.5s-19.4-3.5-26.8-10.5
		c-7.4-6.9-11-15.4-11-25.2s3.7-18.3,11-25.3c7.4-6.9,16.3-10.4,26.8-10.4s19.4,3.5,26.8,10.4C84.2,31.7,87.8,40.1,87.8,50z"/>
</g>
</svg>
