<?xml version="1.0" encoding="utf-8"?>
<!-- Generator: Adobe Illustrator 18.1.1, SVG Export Plug-In . SVG Version: 6.00 Build 0)  -->
<svg version="1.1" id="Layer_1" xmlns="http://www.w3.org/2000/svg" xmlns:xlink="http://www.w3.org/1999/xlink" x="0px" y="0px"
	 viewBox="0 0 100 100" enable-background="new 0 0 100 100" xml:space="preserve">
<g transform="matrix( 1, 0, 0, 1, 0,0) ">
	<g>
		<g id="b">
			<path fill="#FFFFFF" d="M42.2,46.9c0,0.1,0,0.2,0,0.3h-6.9v0c-0.9,0-1.6,0.3-2,0.9c-0.3,0.5-0.5,0.9-0.5,1.5
				c0,1.3,0.8,2.2,2.5,2.4h6.3c-0.1,0.7-0.3,1.4-0.4,2.2c-0.2,0.7-0.9,2.2-2.1,4.3c-1.2,2-1.8,3.1-1.8,3.3c0,0.5,0.1,1,0.4,1.4
				c0.5,0.8,1.4,1.2,2.6,1.2c0.9,0,2.1-1.2,3.4-3.5c1.1-1.9,1.9-3.6,2.3-5.2c0.3-1.3,0.6-2.5,0.8-3.8h7.8c0.2,1.3,0.5,2.6,0.9,3.9
				c0.5,1.6,1.3,3.3,2.4,5.2c1.4,2.3,2.6,3.5,3.6,3.5c1.3,0,2.2-0.4,2.7-1.2c0.3-0.4,0.4-0.9,0.4-1.4c0-0.2-0.6-1.3-1.9-3.3
				c-1.3-2.2-2-3.6-2.2-4.3c-0.2-0.8-0.4-1.6-0.5-2.4h7.1c0.8,0,1.5-0.3,2-1c0.4-0.5,0.5-1,0.5-1.5c0-0.5-0.2-1-0.5-1.4
				c-0.5-0.7-1.1-1-2-1h-7.6c0-0.1,0-0.1,0-0.2c0-2.8,0.9-5.4,2.8-7.8c1.9-2.4,2.8-3.8,2.8-4.1c0-0.9-0.4-1.6-1.1-2.1
				c-1-0.6-2.4-0.2-4.1,1c-1.1,1-2.2,2.4-3.4,4.3c-0.9,1.5-1.6,3-1.9,4.4c-0.3,1.1-0.4,2.5-0.4,4.2c0,0.1,0,0.2,0,0.2h-7
				c0-0.1,0-0.3,0-0.4c0-1.7-0.1-3.1-0.4-4.2c-0.3-1.4-0.9-2.9-1.8-4.4c-1.1-1.9-2.2-3.3-3.2-4.3c-1.6-1.3-2.9-1.6-3.8-1
				c-0.7,0.5-1,1.1-1,2.1c0,0.3,0.9,1.6,2.6,4.1C41.4,41.5,42.3,44.1,42.2,46.9z"/>
		</g>
	</g>
	<g>
		<path id="a" fill="none" stroke="#FFFFFF" stroke-width="4" stroke-linecap="round" stroke-linejoin="round" d="M87.8,50
			c0,10.3-3.7,19-11.1,26.2C69.4,83.5,60.5,87.1,50,87.1s-19.4-3.6-26.8-10.9C15.8,69,12.1,60.3,12.1,50s3.7-19,11.1-26.3
			c7.4-7.2,16.3-10.8,26.8-10.8s19.4,3.6,26.8,10.8C84.1,31,87.8,39.7,87.8,50z"/>
	</g>
</g>
</svg>
