<?xml version="1.0" encoding="utf-8"?>
<!-- Generator: Adobe Illustrator 18.1.1, SVG Export Plug-In . SVG Version: 6.00 Build 0)  -->
<svg version="1.1" id="Layer_1" xmlns="http://www.w3.org/2000/svg" xmlns:xlink="http://www.w3.org/1999/xlink" x="0px" y="0px"
	 viewBox="0 0 100 100" enable-background="new 0 0 100 100" xml:space="preserve">
<g transform="matrix( 1, 0, 0, 1, 0,0) ">
	<g>
		<g id="b">
			<path fill="#FFFFFF" d="M54.2,31.2c-1.2,0.1-1.9,0.9-2.1,2.4c-0.2,1.5,0.5,2.2,2,2.2c0.5,0,1.2-0.1,2.4-0.2
				c1.1-0.1,1.9-0.2,2.4-0.2l0.4,0h1.8c-0.3,0.2-0.6,0.5-0.9,0.7L47.7,47.6l-3.3-2.8c-2-1.5-3.5-1.7-4.5-0.7c-1,1.1-0.7,2.4,1,4
				l3.2,2.7L30.3,63.4c-0.3,0.4-0.6,0.9-0.7,1.4c-0.2,0.8,0,1.5,0.6,2c0.9,0.8,2.1,0.7,3.7-0.3c0.4-0.3,1.9-1.6,4.5-3.9l9.4-8.5
				l5.4,4.9c0,0.2,0.4,0.4,1.1,0.5c0.8,0.1,1.6-0.1,2.2-0.7c0.9-0.9,0.9-1.9,0.1-3.2l-5.2-4.7l7.3-6.5c2.4-2.2,4.1-3.9,5.2-5v5.2
				c0.1,0.4,0.2,0.7,0.5,1.1c0.5,0.6,1.1,0.8,2,0.8c1.4,0,2.2-0.9,2.5-2.6c0-1.8,0-2.8,0-3l-0.1-5.7c0.2-0.9,0.2-1.9-0.2-2.8
				c-0.4-1-1.1-1.6-2-1.8c-0.5-0.1-1.7-0.1-3.7,0c-2.1,0.1-3.2,0.2-3.4,0.3L54.2,31.2z"/>
		</g>
	</g>
	<g>
		<path id="a" fill="none" stroke="#FFFFFF" stroke-width="4" stroke-linecap="round" stroke-linejoin="round" d="M87.8,50
			c0,9.7-3.7,18-11.1,24.9C69.4,81.7,60.5,85.2,50,85.2s-19.4-3.4-26.8-10.3c-7.4-6.8-11-15.1-11-24.9s3.7-18,11-24.9
			c7.4-6.8,16.3-10.3,26.8-10.3s19.4,3.4,26.8,10.3C84.2,32,87.8,40.3,87.8,50z"/>
	</g>
</g>
</svg>
