<?xml version="1.0" encoding="utf-8"?>
<!-- Generator: Adobe Illustrator 18.1.1, SVG Export Plug-In . SVG Version: 6.00 Build 0)  -->
<svg version="1.1" id="Layer_1" xmlns="http://www.w3.org/2000/svg" xmlns:xlink="http://www.w3.org/1999/xlink" x="0px" y="0px"
	 viewBox="0 0 100 100" enable-background="new 0 0 100 100" xml:space="preserve">
<g transform="matrix( 1, 0, 0, 1, 0,0) ">
	<g>
		<g id="b">
			<path fill="#FFFFFF" d="M60.7,32.1c-1.2-3-3.3-4.4-6.2-4.4c-2.5,0-4.6,0.6-6.2,1.9c-1.2-1.2-2.7-1.9-4.6-1.9
				c-2.6,0-4.7,0.7-6.5,2.1c-1.1-1.4-2.6-2.1-4.7-2.1c-3.3,0-6,1.1-7.9,3.4c-1.3,1.5-2,2.8-2,3.9c0,0.4,0.1,0.8,0.4,1.3
				c0.4,0.7,1.1,1.1,2.1,1.1c0.9,0,1.7-0.5,2.3-1.6c0.8-1.4,2.2-2.5,4.2-3.3h1.1c0.5,0.3,0.9,0.9,1.2,1.6c-0.1,0.1,0,0.3,0.1,0.5
				c0.2,0.2,0.2,0.4,0.2,0.5c0,0.4,0.1,0.8,0.4,1.3c0.1,0.1,0,0.2,0,0.3c-0.1,0.1-0.1,0.2-0.1,0.2l0.1,1.4c0,2.5-0.1,5.8-0.2,9.7
				c-0.2,3.9-0.2,6.3-0.2,7.2c0,0.6,0,1.1,0.1,1.3c0.3,0.7,1,1.1,2,1.1c1.4,0,2.3-0.7,2.7-2c0.1-0.2,0.2-1,0.2-2.6l0.2-4.9
				c0.1-2.2,0.2-5.5,0.2-9.9c0-1.3-0.1-2.5-0.3-3.5c0.9-0.9,2-1.7,3.5-2.3H44c0.3,0.2,0.7,0.6,1,1.2c-0.1,0.2-0.1,0.4,0.1,0.7
				c0.2,0.3,0.3,0.6,0.3,0.7c0,0.5,0.1,1,0.4,1.4c0.1,0.1,0.1,0.2,0,0.4c-0.1,0.1-0.1,0.2,0,0.2l0,1.2c0,2.5-0.1,5.8-0.2,9.7
				c-0.2,3.9-0.3,6.3-0.2,7.2c0,0.6,0,1.1,0.2,1.3c0.3,0.7,1,1.1,2,1.1c1.4,0,2.3-0.7,2.7-2c0.1-0.2,0.1-1,0.2-2.6l0.2-4.9
				c0.1-2.2,0.2-5.5,0.2-9.9c0-1.2-0.1-2.5-0.3-3.7c0.8-0.8,1.8-1.4,3.2-2h1.1c0.7,0.5,1.2,1.4,1.5,2.7c0.2,1,0.4,2,0.4,3.1
				c0,2.5-0.1,5.8-0.2,9.7c-0.2,3.9-0.2,6.3-0.2,7.2c0,0.6,0,1.1,0.1,1.3c0.1,0.2,0.2,0.3,0.2,0.4c0.2,0.5,0.6,1.2,1.3,2
				c1.3,1.5,2.9,2.2,4.8,2.2l2.2-0.2c0.1,0,0.3,0,0.5,0c0,0.2-0.1,0.4-0.1,0.6c0,0.5,0.1,0.9,0.4,1.3c0.5,0.7,1.2,1.1,2.3,1.1
				c1,0,1.8-0.3,2.4-1c0.4-0.4,0.9-1,1.5-1.8c0.6-0.5,1.3-1.1,2.1-1.8c0.5-0.5,0.8-1,0.8-1.6c0-0.7-0.4-1.4-1.2-1.9
				c-1.2-0.8-2.3-1.5-3.2-2.2c-0.1-0.1-0.2-0.1-0.2-0.2c-0.9-0.8-1.8-1.2-2.8-1.2c-1,0-1.7,0.3-2.2,0.9c-0.3,0.4-0.4,0.8-0.4,1.4
				c0,0.5,0.2,1.1,0.7,1.8c-1.4,0.2-2.2,0.2-2.4,0.2c-0.5,0-1.2-0.4-2-1.3c0.1-0.4,0.1-1.1,0.2-2.1l0.2-4.9c0.1-2.2,0.2-5.5,0.2-9.9
				C61.7,35.8,61.4,33.8,60.7,32.1z"/>
		</g>
	</g>
	<g>
		<path id="a" fill="none" stroke="#FFFFFF" stroke-width="4" stroke-linecap="round" stroke-linejoin="round" d="M87.1,45.9
			c0,9.8-3.7,18.1-11.1,25c-7.4,6.9-16.3,10.4-26.8,10.4c-10.5,0-19.4-3.5-26.8-10.4c-7.4-6.9-11.1-15.2-11.1-25
			c0-9.8,3.7-18.1,11.1-25.1c7.4-6.9,16.3-10.3,26.8-10.3c10.5,0,19.4,3.4,26.8,10.3C83.4,27.7,87.1,36.1,87.1,45.9z"/>
	</g>
</g>
</svg>
