<?xml version="1.0" encoding="utf-8"?>
<!-- Generator: Adobe Illustrator 18.1.1, SVG Export Plug-In . SVG Version: 6.00 Build 0)  -->
<svg version="1.1" id="Layer_1" xmlns="http://www.w3.org/2000/svg" xmlns:xlink="http://www.w3.org/1999/xlink" x="0px" y="0px"
	 viewBox="0 0 100 100" enable-background="new 0 0 100 100" xml:space="preserve">
<g>
	<g id="b">
		<path fill="#FFFFFF" d="M50.7,43.9c-0.3,0-0.5,0-0.8,0c-0.1,0-0.2,0-0.3,0C50,43.9,50.4,43.9,50.7,43.9 M49.7,40.5
			C49.9,40.5,49.9,40.5,49.7,40.5s-0.8-0.1-1.7-0.1c-0.8,0-1.6-0.1-2.3-0.3c-1.3-0.3-3-1.8-5-4.6c-1.9-2.9-4-4.6-6.2-5.1
			c-2.6-0.6-4-0.1-4.4,1.7c-0.1,0.7,0,1.3,0.4,1.7c0.4,0.6,1.4,1,2.9,1.3c1,0.2,2.5,1.8,4.5,4.7c2,2.8,4.2,4.5,6.6,5
			c0.1,0,0.2,0.1,0.4,0.1c1.4-0.7,3-1,4.8-1c0.1,0,0.2,0,0.3,0c0.3,0,0.5,0,0.8,0c1.6,0.1,3,0.5,4.3,1.1c0.1,0,0.1,0,0.2,0
			c2.5-0.7,4.7-2.5,6.7-5.5s3.4-4.6,4.3-4.9c1.5-0.4,2.5-0.9,2.9-1.5c0.4-0.5,0.4-1.1,0.2-1.8c-0.5-1.7-2.1-2.1-4.8-1.4
			c-2.2,0.6-4.2,2.4-6,5.4c-1.8,2.9-3.4,4.5-4.8,4.8c-0.7,0.2-1.5,0.3-2.3,0.3h-1.8V40.5z"/>
	</g>
</g>
<path id="a" fill="none" stroke="#FFFFFF" stroke-width="4" stroke-linecap="round" stroke-linejoin="round" d="M44.9,44.9
	c1.4-0.7,3-1,4.8-1c0.1,0,0.2,0,0.3,0c0.3,0,0.6,0,0.8,0c1.5,0.1,3,0.4,4.3,1.1c1.3,0.6,2.5,1.4,3.6,2.5c2.4,2.4,3.6,5.2,3.6,8.6
	s-1.2,6.2-3.6,8.6c-2.4,2.4-5.3,3.6-8.7,3.6s-6.3-1.2-8.7-3.6s-3.6-5.2-3.6-8.6s1.2-6.2,3.6-8.6C42.4,46.4,43.6,45.5,44.9,44.9z
	 M87.9,50c0,10.3-3.7,19.1-11.1,26.4C69.4,83.8,60.5,87.3,50,87.3s-19.4-3.6-26.8-10.9S12.1,60.3,12.1,50s3.8-19.2,11.2-26.5
	s16.3-10.9,26.8-10.9s19.4,3.6,26.8,10.9C84.2,30.8,87.9,39.6,87.9,50z"/>
<path id="a_1_" opacity="0.4" fill="#FFFFFF" d="M44.9,44.9c1.4-0.7,3-1,4.8-1c0.1,0,0.2,0,0.3,0c0.3,0,0.6,0,0.8,0
	c1.5,0.1,3,0.4,4.3,1.1c1.3,0.6,2.5,1.4,3.6,2.5c2.4,2.4,3.6,5.2,3.6,8.6s-1.2,6.2-3.6,8.6c-2.4,2.4-5.3,3.6-8.7,3.6
	s-6.3-1.2-8.7-3.6s-3.6-5.2-3.6-8.6s1.2-6.2,3.6-8.6C42.4,46.4,43.6,45.5,44.9,44.9z M87.9,50c0,10.3-3.7,19.1-11.1,26.4
	C69.4,83.8,60.5,87.3,50,87.3s-19.4-3.6-26.8-10.9S12.1,60.3,12.1,50s3.8-19.2,11.2-26.5s16.3-10.9,26.8-10.9s19.4,3.6,26.8,10.9
	C84.2,30.8,87.9,39.6,87.9,50z"/>
</svg>
