<?xml version="1.0" encoding="utf-8"?>
<!-- Generator: Adobe Illustrator 18.1.1, SVG Export Plug-In . SVG Version: 6.00 Build 0)  -->
<svg version="1.1" id="Layer_1" xmlns="http://www.w3.org/2000/svg" xmlns:xlink="http://www.w3.org/1999/xlink" x="0px" y="0px"
	 viewBox="0 0 100 100" enable-background="new 0 0 100 100" xml:space="preserve">
<g transform="matrix( 1, 0, 0, 1, 0,0) ">
	<g>
		<g id="b">
			<path fill="#FFFFFF" d="M50.2,41.1c-0.3,0-0.5,0-0.8,0c-0.1,0-0.2,0-0.3,0C49.5,41.1,49.9,41.1,50.2,41.1 M49.2,37.7
				C49.4,37.7,49.4,37.7,49.2,37.7c-0.2,0-0.8-0.1-1.7-0.1c-0.8,0-1.6-0.1-2.3-0.3c-1.3-0.3-3-1.8-5-4.6c-1.9-2.9-4-4.6-6.2-5.1
				c-2.6-0.6-4-0.1-4.4,1.7C29.5,30,29.6,30.6,30,31c0.4,0.6,1.4,1,2.9,1.3c1,0.2,2.5,1.8,4.5,4.7c2,2.8,4.2,4.5,6.6,5
				c0.1,0,0.2,0.1,0.4,0.1c1.4-0.7,3-1,4.8-1c0.1,0,0.2,0,0.3,0c0.3,0,0.5,0,0.8,0c1.6,0.1,3,0.5,4.3,1.1c0.1,0,0.1,0,0.2,0
				c2.5-0.7,4.7-2.5,6.7-5.5c2-3,3.4-4.6,4.3-4.9c1.5-0.4,2.5-0.9,2.9-1.5c0.4-0.5,0.4-1.1,0.2-1.8c-0.5-1.7-2.1-2.1-4.8-1.4
				c-2.2,0.6-4.2,2.4-6,5.4c-1.8,2.9-3.4,4.5-4.8,4.8c-0.7,0.2-1.5,0.3-2.3,0.3H49.2z"/>
		</g>
	</g>
	<g>
		<path id="a" fill="none" stroke="#FFFFFF" stroke-width="4" stroke-linecap="round" stroke-linejoin="round" d="M44.4,42.1
			c1.4-0.7,3-1,4.8-1c0.1,0,0.2,0,0.3,0c0.3,0,0.6,0,0.8,0c1.5,0.1,3,0.4,4.3,1.1c1.3,0.6,2.5,1.4,3.6,2.5c2.4,2.4,3.6,5.2,3.6,8.6
			s-1.2,6.2-3.6,8.6c-2.4,2.4-5.3,3.6-8.7,3.6s-6.3-1.2-8.7-3.6c-2.4-2.4-3.6-5.2-3.6-8.6s1.2-6.2,3.6-8.6
			C41.9,43.6,43.1,42.7,44.4,42.1z M87.4,47.2c0,10.3-3.7,19.1-11.1,26.4C68.9,80.9,60,84.5,49.5,84.5s-19.4-3.6-26.8-10.9
			c-7.4-7.3-11.1-16.1-11.1-26.4S15.4,28,22.8,20.7c7.4-7.3,16.3-10.9,26.8-10.9s19.4,3.6,26.8,10.9C83.7,28,87.4,36.8,87.4,47.2z"
			/>
	</g>
</g>
</svg>
