<?xml version="1.0" encoding="utf-8"?>
<!-- Generator: Adobe Illustrator 18.1.1, SVG Export Plug-In . SVG Version: 6.00 Build 0)  -->
<svg version="1.1" id="Layer_1" xmlns="http://www.w3.org/2000/svg" xmlns:xlink="http://www.w3.org/1999/xlink" x="0px" y="0px"
	 viewBox="0 0 100 100" enable-background="new 0 0 100 100" xml:space="preserve">
<g>
	<g id="b">
		<path fill="#FFFFFF" d="M56.4,36.2h1.2c0.7,0.5,1.2,1.4,1.5,2.7c0.2,1,0.4,2,0.4,3.1c0,2.5-0.1,5.8-0.2,9.8
			c-0.2,4-0.2,6.4-0.2,7.2c0,0.6,0,1.1,0.1,1.3c0.1,0.1,0.1,0.2,0.2,0.3c0.1,0.1,0.1,0.2,0.2,0.3c-0.3,0.3-0.6,0.5-0.9,0.7
			c-2.9,2.1-4.4,3.7-4.4,4.7c0,0.5,0.1,1,0.4,1.4c0.4,0.7,1.1,1,2.1,1c0.8,0,3.3-1.6,7.4-4.9l0,0l7.5,3.5c0.9,0,1.6-0.3,2.1-1
			c0.3-0.5,0.4-0.9,0.4-1.4c0-1.2-0.4-2-1.2-2.5c-0.6-0.5-2.2-1.1-4.5-2c0.8-0.7,1.4-1.2,1.7-1.7c2.9-4.1,4.3-7.6,4.3-10.5
			c0-2.3-0.3-4.1-0.9-5.4c-1.1-2.2-3-3.2-5.9-3.2c-1.2,0-2.2,0.2-3.2,0.5c-0.1-1.5-0.4-2.9-1-4.2c-1.2-3-3.2-4.5-6.1-4.5
			c-2.5,0-4.6,0.6-6.2,1.9c-1.2-1.3-2.7-1.9-4.6-1.9c-2.6,0-4.7,0.7-6.5,2.1c-1.1-1.4-2.6-2.1-4.7-2.1c-3.3,0-6,1.1-7.9,3.4
			c-1.3,1.5-2,2.8-2,3.9c0,0.4,0.1,0.8,0.4,1.3C26.3,40.7,27,41,28,41c0.9,0,1.7-0.5,2.3-1.6c0.8-1.4,2.2-2.5,4.2-3.3h1.2
			c0.5,0.3,0.9,0.9,1.2,1.6c-0.1,0.1,0,0.3,0.1,0.5c0.2,0.2,0.2,0.4,0.2,0.5c0,0.4,0.1,0.8,0.4,1.3c0.1,0.1,0,0.2,0,0.3
			c-0.1,0.1-0.1,0.2-0.1,0.2V42c0,2.5-0.1,5.8-0.2,9.8c-0.2,4-0.2,6.4-0.2,7.2c0,0.6,0,1.1,0.2,1.3c0.3,0.8,1,1.1,2,1.1
			c1.4,0,2.3-0.7,2.7-2c0.1-0.2,0.1-1.1,0.2-2.6l0.2-4.9c0.1-2.2,0.2-5.5,0.2-10c0-1.3-0.1-2.5-0.3-3.5c0.9-0.9,2.1-1.7,3.5-2.3H47
			c0.3,0.2,0.7,0.6,1,1.2c-0.1,0.2,0,0.4,0.1,0.8c0.2,0.3,0.3,0.6,0.3,0.7c0,0.5,0.1,1,0.4,1.5c0.1,0.1,0,0.2,0,0.4
			c-0.1,0.1-0.1,0.2,0,0.2v1.2c0,2.5-0.1,5.8-0.2,9.8c-0.2,4-0.2,6.4-0.2,7.2c0,0.6,0.1,1.1,0.2,1.3c0.3,0.8,1,1.1,2,1.1
			c1.4,0,2.3-0.7,2.7-2c0.1-0.2,0.2-1.1,0.2-2.6l0.2-4.9c0.1-2.2,0.2-5.5,0.2-10c0-1.2-0.1-2.5-0.3-3.8C54,37.4,55.1,36.8,56.4,36.2
			 M64.4,46.5c0.2-0.2,0.3-0.4,0.5-0.6c0.7-1.1,1.6-1.6,2.5-1.6c1.3,0,2,1.3,2,3.9c0,1.3-0.5,2.9-1.5,4.7c-0.9,1.9-2,3.3-3.3,4.4
			c-0.2,0.2-0.5,0.3-0.7,0.5c0-0.3,0.1-0.6,0.1-0.9l0.2-4.9C64.3,50.6,64.4,48.8,64.4,46.5z"/>
	</g>
</g>
<g>
	<path id="a" fill="none" stroke="#FFFFFF" stroke-width="4" stroke-linecap="round" stroke-linejoin="round" d="M87.8,50
		c0,9.9-3.7,18.2-11.1,25.2S60.5,85.7,50,85.7s-19.4-3.5-26.8-10.5c-7.3-7-11-15.3-11-25.2s3.7-18.3,11.1-25.2S39.5,14.4,50,14.4
		s19.4,3.5,26.8,10.4C84.1,31.7,87.8,40,87.8,50z"/>
</g>
<g opacity="0.4">
	<path id="a_1_" fill="#FFFFFF" d="M87.8,50c0,9.9-3.7,18.2-11.1,25.2S60.5,85.7,50,85.7s-19.4-3.5-26.8-10.5
		c-7.3-7-11-15.3-11-25.2s3.7-18.3,11.1-25.2S39.5,14.4,50,14.4s19.4,3.5,26.8,10.4C84.1,31.7,87.8,40,87.8,50z"/>
</g>
</svg>
